<svg xmlns="http://www.w3.org/2000/svg" width="23.484" height="23.485" viewBox="0 0 23.484 23.485">
  <g id="rate_casaloon" transform="translate(-0.001)">
    <g id="_100Asset_2" data-name="100Asset 2">
      <g id="Layer_1" data-name="Layer 1">
        <path id="Path_1" data-name="Path 1" d="M159.65,53.937a10.368,10.368,0,0,1,2.537-5.993,8.081,8.081,0,0,1,5.766-2.31,8.08,8.08,0,0,1-2.31,5.766A10.339,10.339,0,0,1,159.65,53.937Z" transform="translate(-147.847 -42.256)" fill="#8dc7b8"/>
        <path id="Path_2" data-name="Path 2" d="M53.946,159.65a10.369,10.369,0,0,1-2.536,5.993,8.085,8.085,0,0,1-5.766,2.313,8.067,8.067,0,0,1,2.314-5.766A10.323,10.323,0,0,1,53.946,159.65Z" transform="translate(-42.265 -147.847)" fill="#8dc7b8"/>
        <path id="Path_3" data-name="Path 3" d="M159.65,159.65a10.367,10.367,0,0,1,5.993,2.537,8.091,8.091,0,0,1,2.313,5.769,8.081,8.081,0,0,1-5.766-2.31A10.35,10.35,0,0,1,159.65,159.65Z" transform="translate(-147.847 -147.847)" fill="#939"/>
        <path id="Path_4" data-name="Path 4" d="M53.992,53.927A10.35,10.35,0,0,1,48,51.39a8.076,8.076,0,0,1-2.31-5.766,8.077,8.077,0,0,1,5.766,2.31A10.355,10.355,0,0,1,53.992,53.927Z" transform="translate(-42.311 -42.246)" fill="#939"/>
        <path id="Path_5" data-name="Path 5" d="M158.83,128.223a10.375,10.375,0,0,1,6.031-2.443,8.079,8.079,0,0,1,5.712,2.443,8.086,8.086,0,0,1-5.712,2.444A10.334,10.334,0,0,1,158.83,128.223Z" transform="translate(-147.088 -116.481)" fill="#a7bd5b"/>
        <path id="Path_6" data-name="Path 6" d="M11.742,128.224a10.382,10.382,0,0,1-6.031,2.44A8.073,8.073,0,0,1,0,128.223a8.087,8.087,0,0,1,5.711-2.443A10.342,10.342,0,0,1,11.742,128.224Z" transform="translate(0 -116.481)" fill="#a7bd5b"/>
        <path id="Path_7" data-name="Path 7" d="M128.178,158.83a10.382,10.382,0,0,1,2.44,6.031,8.078,8.078,0,0,1-2.444,5.712,8.087,8.087,0,0,1-2.443-5.712A10.353,10.353,0,0,1,128.178,158.83Z" transform="translate(-116.435 -147.088)" fill="#cc4377"/>
        <path id="Path_8" data-name="Path 8" d="M128.223,11.742a10.375,10.375,0,0,1-2.443-6.031A8.087,8.087,0,0,1,128.223,0a8.086,8.086,0,0,1,2.444,5.711A10.342,10.342,0,0,1,128.223,11.742Z" transform="translate(-116.481)" fill="#cc4377"/>
        <path id="Path_13" data-name="Path 13" d="M170.937,241.634a.234.234,0,1,1-.032-.117A.222.222,0,0,1,170.937,241.634Z" transform="translate(-157.867 -223.555)" fill="#fff"/>
        <path id="Path_14" data-name="Path 14" d="M171.8,242.56a.172.172,0,1,1-.032-.117A.221.221,0,0,1,171.8,242.56Z" transform="translate(-158.732 -224.481)" fill="#c9ecf2"/>
        <path id="Path_15" data-name="Path 15" d="M162.515,278.509a.4.4,0,1,1-.055-.2A.389.389,0,0,1,162.515,278.509Z" transform="translate(-149.754 -257.548)" fill="#fff"/>
        <path id="Path_16" data-name="Path 16" d="M163.973,280.016a.348.348,0,1,1-.285-.274.235.235,0,0,1,.285.274Z" transform="translate(-151.213 -259.055)" fill="#c9ecf2"/>
        <path id="Path_17" data-name="Path 17" d="M141.155,261.552a.4.4,0,0,1-.4.4.406.406,0,0,1-.229-.074.4.4,0,1,1,.574-.532A.39.39,0,0,1,141.155,261.552Z" transform="translate(-129.977 -241.843)" fill="#fff"/>
        <path id="Path_18" data-name="Path 18" d="M142.616,263.048a.4.4,0,0,1-.4.4.407.407,0,0,1-.229-.074.4.4,0,0,1,.345-.6.235.235,0,0,1,.285.274Z" transform="translate(-131.438 -243.339)" fill="#c9ecf2"/>
        <path id="Path_19" data-name="Path 19" d="M141.971,216.463a.4.4,0,0,1-.4.4.406.406,0,0,1-.229-.074.4.4,0,1,1,.575-.531A.39.39,0,0,1,141.971,216.463Z" transform="translate(-130.734 -200.088)" fill="#fff"/>
        <path id="Path_20" data-name="Path 20" d="M143.423,218.027a.4.4,0,0,1-.4.4.406.406,0,0,1-.229-.074.4.4,0,0,1,.346-.6.4.4,0,0,1,.229.074A.389.389,0,0,1,143.423,218.027Z" transform="translate(-132.186 -201.652)" fill="#c9ecf2"/>
        <path id="Path_21" data-name="Path 21" d="M96.322,200.917a.4.4,0,1,1-.055-.2A.39.39,0,0,1,96.322,200.917Z" transform="translate(-88.458 -185.692)" fill="#fff"/>
        <path id="Path_22" data-name="Path 22" d="M97.8,202.5a.3.3,0,1,1-.055-.2A.39.39,0,0,1,97.8,202.5Z" transform="translate(-89.931 -187.279)" fill="#c9ecf2"/>
        <path id="Path_23" data-name="Path 23" d="M85.491,242.887a.4.4,0,0,1-.4.4.405.405,0,0,1-.229-.074.4.4,0,1,1,.575-.531A.389.389,0,0,1,85.491,242.887Z" transform="translate(-78.429 -224.558)" fill="#fff"/>
        <path id="Path_24" data-name="Path 24" d="M86.951,244.466a.4.4,0,0,1-.4.4.405.405,0,0,1-.229-.074.4.4,0,0,1,.346-.6.236.236,0,0,1,.284.276Z" transform="translate(-79.889 -226.137)" fill="#c9ecf2"/>
        <path id="Path_25" data-name="Path 25" d="M55.979,250.981a.4.4,0,1,1-.055-.2A.39.39,0,0,1,55.979,250.981Z" transform="translate(-51.1 -232.055)" fill="#fff"/>
        <path id="Path_26" data-name="Path 26" d="M57.415,252.554a.3.3,0,1,1-.055-.2A.391.391,0,0,1,57.415,252.554Z" transform="translate(-52.536 -233.628)" fill="#c9ecf2"/>
        <path id="Path_27" data-name="Path 27" d="M66.466,238.49a.233.233,0,0,1-.233.234.233.233,0,1,1,.2-.351A.227.227,0,0,1,66.466,238.49Z" transform="translate(-61.121 -220.644)" fill="#fff"/>
        <path id="Path_28" data-name="Path 28" d="M67.308,239.409a.233.233,0,0,1-.233.234.137.137,0,0,1-.166-.16.234.234,0,0,1,.367-.191A.228.228,0,0,1,67.308,239.409Z" transform="translate(-61.963 -221.563)" fill="#c9ecf2"/>
        <path id="Path_29" data-name="Path 29" d="M29.345,152.979a.4.4,0,1,1-.055-.2A.388.388,0,0,1,29.345,152.979Z" transform="translate(-26.429 -141.299)" fill="#fff"/>
        <path id="Path_30" data-name="Path 30" d="M30.854,154.564a.331.331,0,1,1-.285-.274.393.393,0,0,1,.229.074A.388.388,0,0,1,30.854,154.564Z" transform="translate(-27.939 -142.884)" fill="#c9ecf2"/>
        <path id="Path_31" data-name="Path 31" d="M59.055,168.709a.4.4,0,1,1-.055-.2A.388.388,0,0,1,59.055,168.709Z" transform="translate(-53.943 -155.866)" fill="#fff"/>
        <path id="Path_32" data-name="Path 32" d="M60.565,170.276a.4.4,0,0,1-.63.329.393.393,0,0,1-.055-.2.4.4,0,0,1,.4-.4.393.393,0,0,1,.229.074A.388.388,0,0,1,60.565,170.276Z" transform="translate(-55.453 -157.432)" fill="#c9ecf2"/>
        <path id="Path_33" data-name="Path 33" d="M103.668,167.084a.234.234,0,1,1-.033-.118A.228.228,0,0,1,103.668,167.084Z" transform="translate(-95.57 -154.516)" fill="#fff"/>
        <path id="Path_34" data-name="Path 34" d="M104.515,167.957a.2.2,0,1,1-.166-.16.137.137,0,0,1,.166.16Z" transform="translate(-96.417 -155.389)" fill="#c9ecf2"/>
        <path id="Path_35" data-name="Path 35" d="M72.757,135.594a.234.234,0,1,1-.032-.117A.222.222,0,0,1,72.757,135.594Z" transform="translate(-66.945 -125.354)" fill="#fff"/>
        <path id="Path_36" data-name="Path 36" d="M73.576,136.52a.175.175,0,1,1-.035-.117A.222.222,0,0,1,73.576,136.52Z" transform="translate(-67.764 -126.28)" fill="#c9ecf2"/>
        <path id="Path_37" data-name="Path 37" d="M88.185,112.091a.24.24,0,1,1-.035-.118A.228.228,0,0,1,88.185,112.091Z" transform="translate(-81.231 -103.59)" fill="#fff"/>
        <path id="Path_38" data-name="Path 38" d="M89.026,113a.175.175,0,1,1-.036-.118A.228.228,0,0,1,89.026,113Z" transform="translate(-82.072 -104.499)" fill="#c9ecf2"/>
        <path id="Path_39" data-name="Path 39" d="M63.321,80.481a.234.234,0,0,1-.233.233.236.236,0,0,1-.133-.041.233.233,0,1,1,.334-.309A.226.226,0,0,1,63.321,80.481Z" transform="translate(-58.209 -74.317)" fill="#fff"/>
        <path id="Path_40" data-name="Path 40" d="M64.169,81.39a.234.234,0,0,1-.233.233.237.237,0,0,1-.133-.041.234.234,0,0,1,.2-.351.136.136,0,0,1,.165.16Z" transform="translate(-59.056 -75.225)" fill="#c9ecf2"/>
        <path id="Path_41" data-name="Path 41" d="M97.085,77.509a.4.4,0,1,1-.055-.2A.389.389,0,0,1,97.085,77.509Z" transform="translate(-89.161 -71.408)" fill="#fff"/>
        <path id="Path_42" data-name="Path 42" d="M98.592,79.113a.331.331,0,1,1-.285-.273.236.236,0,0,1,.285.273Z" transform="translate(-90.668 -73.012)" fill="#c9ecf2"/>
        <path id="Path_43" data-name="Path 43" d="M68.555,54.819a.4.4,0,1,1-.055-.2A.39.39,0,0,1,68.555,54.819Z" transform="translate(-62.741 -50.395)" fill="#fff"/>
        <path id="Path_44" data-name="Path 44" d="M70.064,56.4a.331.331,0,1,1-.285-.274.237.237,0,0,1,.285.274Z" transform="translate(-64.25 -51.98)" fill="#c9ecf2"/>
        <path id="Path_45" data-name="Path 45" d="M159.335,23.109a.4.4,0,1,1-.055-.2A.388.388,0,0,1,159.335,23.109Z" transform="translate(-146.809 -21.03)" fill="#fff"/>
        <path id="Path_46" data-name="Path 46" d="M160.844,24.694a.331.331,0,1,1-.285-.274.393.393,0,0,1,.229.074A.388.388,0,0,1,160.844,24.694Z" transform="translate(-148.319 -22.615)" fill="#c9ecf2"/>
        <path id="Path_47" data-name="Path 47" d="M136.475,68.979a.4.4,0,1,1-.055-.2A.388.388,0,0,1,136.475,68.979Z" transform="translate(-125.639 -63.509)" fill="#fff"/>
        <path id="Path_48" data-name="Path 48" d="M137.984,70.564a.331.331,0,1,1-.285-.274.393.393,0,0,1,.229.074A.387.387,0,0,1,137.984,70.564Z" transform="translate(-127.149 -65.094)" fill="#c9ecf2"/>
        <path id="Path_49" data-name="Path 49" d="M167.6,95.221a.233.233,0,1,1-.032-.118A.233.233,0,0,1,167.6,95.221Z" transform="translate(-154.774 -87.966)" fill="#fff"/>
        <path id="Path_50" data-name="Path 50" d="M168.383,96.107a.175.175,0,1,1-.032-.118A.233.233,0,0,1,168.383,96.107Z" transform="translate(-155.561 -88.852)" fill="#c9ecf2"/>
        <path id="Path_51" data-name="Path 51" d="M202.849,90.981a.4.4,0,1,1-.055-.2A.4.4,0,0,1,202.849,90.981Z" transform="translate(-187.112 -83.884)" fill="#fff"/>
        <path id="Path_52" data-name="Path 52" d="M204.285,92.554a.3.3,0,1,1-.055-.2A.4.4,0,0,1,204.285,92.554Z" transform="translate(-188.548 -85.457)" fill="#c9ecf2"/>
        <path id="Path_53" data-name="Path 53" d="M251.145,68.979a.4.4,0,1,1-.055-.2A.388.388,0,0,1,251.145,68.979Z" transform="translate(-231.832 -63.509)" fill="#fff"/>
        <path id="Path_54" data-name="Path 54" d="M252.654,70.564a.331.331,0,1,1-.285-.274.393.393,0,0,1,.229.074A.389.389,0,0,1,252.654,70.564Z" transform="translate(-233.341 -65.094)" fill="#c9ecf2"/>
        <path id="Path_55" data-name="Path 55" d="M235.572,101.2a.234.234,0,0,1-.234.234.237.237,0,0,1-.133-.041.233.233,0,1,1,.334-.309A.222.222,0,0,1,235.572,101.2Z" transform="translate(-217.725 -93.505)" fill="#fff"/>
        <path id="Path_56" data-name="Path 56" d="M236.364,102.109a.234.234,0,0,1-.234.234.136.136,0,0,1-.166-.16.233.233,0,0,1,.233-.233.228.228,0,0,1,.133.042A.222.222,0,0,1,236.364,102.109Z" transform="translate(-218.517 -94.413)" fill="#c9ecf2"/>
        <path id="Path_57" data-name="Path 57" d="M238.725,57.781a.233.233,0,1,1-.032-.118A.225.225,0,0,1,238.725,57.781Z" transform="translate(-220.646 -53.294)" fill="#fff"/>
        <path id="Path_58" data-name="Path 58" d="M239.568,58.7a.234.234,0,0,1-.366.191.229.229,0,0,1-.033-.118.233.233,0,0,1,.234-.233.23.23,0,0,1,.133.042A.226.226,0,0,1,239.568,58.7Z" transform="translate(-221.489 -54.212)" fill="#c9ecf2"/>
        <path id="Path_59" data-name="Path 59" d="M283.952,160.811a.234.234,0,0,1-.234.234.237.237,0,0,1-.133-.041.233.233,0,1,1,.334-.309A.221.221,0,0,1,283.952,160.811Z" transform="translate(-262.528 -148.708)" fill="#fff"/>
        <path id="Path_60" data-name="Path 60" d="M284.764,161.719a.234.234,0,0,1-.234.234.136.136,0,0,1-.165-.16.233.233,0,0,1,.233-.233.23.23,0,0,1,.133.042A.222.222,0,0,1,284.764,161.719Z" transform="translate(-263.34 -149.616)" fill="#c9ecf2"/>
        <path id="Path_61" data-name="Path 61" d="M258.555,143.081a.233.233,0,1,1-.032-.118A.222.222,0,0,1,258.555,143.081Z" transform="translate(-239.01 -132.288)" fill="#fff"/>
        <path id="Path_62" data-name="Path 62" d="M259.4,144.009a.234.234,0,0,1-.366.191.229.229,0,0,1-.033-.118.233.233,0,0,1,.234-.233.23.23,0,0,1,.133.042A.223.223,0,0,1,259.4,144.009Z" transform="translate(-239.853 -133.216)" fill="#c9ecf2"/>
        <path id="Path_63" data-name="Path 63" d="M228.675,136.649a.4.4,0,1,1-.055-.2A.386.386,0,0,1,228.675,136.649Z" transform="translate(-211.023 -126.176)" fill="#fff"/>
        <path id="Path_64" data-name="Path 64" d="M230.184,138.234a.331.331,0,1,1-.285-.274.393.393,0,0,1,.229.074A.385.385,0,0,1,230.184,138.234Z" transform="translate(-212.533 -127.761)" fill="#c9ecf2"/>
        <path id="Path_65" data-name="Path 65" d="M212.045,168.709a.4.4,0,1,1-.055-.2A.388.388,0,0,1,212.045,168.709Z" transform="translate(-195.623 -155.866)" fill="#fff"/>
        <path id="Path_66" data-name="Path 66" d="M213.555,170.294a.4.4,0,0,1-.63.329.393.393,0,0,1-.055-.2.4.4,0,0,1,.4-.4.393.393,0,0,1,.229.074A.388.388,0,0,1,213.555,170.294Z" transform="translate(-197.133 -157.451)" fill="#c9ecf2"/>
        <path id="Path_67" data-name="Path 67" d="M245.752,227.317a.4.4,0,1,1-.055-.2A.39.39,0,0,1,245.752,227.317Z" transform="translate(-226.841 -210.14)" fill="#fff"/>
        <path id="Path_68" data-name="Path 68" d="M250.015,228.834a.234.234,0,1,1-.055-.2A.39.39,0,0,1,250.015,228.834Z" transform="translate(-231.103 -211.658)" fill="#c9ecf2"/>
        <path id="Path_69" data-name="Path 69" d="M218.979,238.481a.24.24,0,1,1-.036-.118A.229.229,0,0,1,218.979,238.481Z" transform="translate(-202.356 -220.635)" fill="#fff"/>
        <path id="Path_70" data-name="Path 70" d="M221.465,239.359a.137.137,0,1,1-.033-.118A.229.229,0,0,1,221.465,239.359Z" transform="translate(-204.842 -221.513)" fill="#c9ecf2"/>
        <path id="Path_71" data-name="Path 71" d="M258.555,258.511a.233.233,0,1,1-.032-.117A.226.226,0,0,1,258.555,258.511Z" transform="translate(-239.01 -239.184)" fill="#fff"/>
        <path id="Path_72" data-name="Path 72" d="M259.4,259.43a.234.234,0,0,1-.366.191A.229.229,0,0,1,259,259.5a.233.233,0,0,1,.234-.233.231.231,0,0,1,.133.042A.226.226,0,0,1,259.4,259.43Z" transform="translate(-239.853 -240.103)" fill="#c9ecf2"/>
        <path id="Path_73" data-name="Path 73" d="M239.147,247.664a.234.234,0,1,1-.032-.117A.222.222,0,0,1,239.147,247.664Z" transform="translate(-221.034 -229.139)" fill="#fff"/>
        <path id="Path_74" data-name="Path 74" d="M239.966,248.59a.175.175,0,1,1-.036-.117A.222.222,0,0,1,239.966,248.59Z" transform="translate(-221.853 -230.065)" fill="#c9ecf2"/>
      </g>
    </g>
  </g>
</svg>
